<svg xmlns="http://www.w3.org/2000/svg" viewBox="0 0 53.53 53.51"><defs><style>.cls-1{fill:#3665a2;}</style></defs><title>fb-share</title><g id="Layer_2" data-name="Layer 2"><g id="Layer_1-2" data-name="Layer 1"><path class="cls-1" d="M0,26.73c0-5.33,0-10.66,0-16A10.61,10.61,0,0,1,8.46.24a10.13,10.13,0,0,1,2-.22Q17.26,0,24,0a2.65,2.65,0,0,1,2.62,3.5,2.65,2.65,0,0,1-2.7,1.82h-13A5.2,5.2,0,0,0,5.86,8.48a6.06,6.06,0,0,0-.5,2.42q0,15.87,0,31.73a5.34,5.34,0,0,0,5.55,5.54q15.87,0,31.73,0a5.35,5.35,0,0,0,5.55-5.6c0-4.33,0-8.65,0-13a2.65,2.65,0,0,1,1.89-2.71,2.61,2.61,0,0,1,3.42,2.4c0,4.83.11,9.66,0,14.48-.16,5-4.76,9.47-9.8,9.72l-.56,0c-10.87,0-21.74,0-32.61,0A10.49,10.49,0,0,1,.38,45.57,12.88,12.88,0,0,1,0,42.47C0,37.23,0,32,0,26.73Z"/><path class="cls-1" d="M44.17,5.34h-.93c-2.86,0-5.72,0-8.59,0a2.59,2.59,0,0,1-2.53-2.65A2.62,2.62,0,0,1,34.66,0c.61,0,1.21,0,1.82,0H50.65a2.6,2.6,0,0,1,2.84,2.73q0,8,0,15.92a2.63,2.63,0,0,1-2,2.65,2.57,2.57,0,0,1-3-1.23,3.56,3.56,0,0,1-.37-1.61c0-2.82,0-5.64,0-8.46V9.16l-.62.58c-6.22,6.22-2,1.64-8.18,7.88a2.82,2.82,0,0,1-2.82.92,2.67,2.67,0,0,1-1.43-4.22c.18-.22.4-.43.6-.63,6.16-6.17,1.85-1.54,8-7.69a3.24,3.24,0,0,1,.63-.41Z"/><path class="cls-1" d="M30.47,31.72H23.38V49.31H16.64V31.73H10.56V25.85h6.08v-.26c0-1.29,0-2.58,0-3.86a8.93,8.93,0,0,1,2.8-6.2,7.58,7.58,0,0,1,5.34-2.1h5.66v6.24H25.12a1.44,1.44,0,0,0-1.53,1,2.73,2.73,0,0,0-.21.93c0,1.37,0,2.74,0,4.1a1.05,1.05,0,0,0,0,.13h7.08Z"/></g></g></svg>