<svg xmlns="http://www.w3.org/2000/svg" viewBox="0 0 143.96 143.93"><defs><style>.cls-1{fill:#fff;}</style></defs><title>profile</title><g id="Layer_2" data-name="Layer 2"><g id="Layer_1-2" data-name="Layer 1"><path class="cls-1" d="M67.78,0h8.43c1.9.23,3.81.42,5.7.69a70.26,70.26,0,0,1,37.47,17.15,70.43,70.43,0,0,1,23.47,41.74c.47,2.7.74,5.44,1.11,8.16v8.44a10.2,10.2,0,0,0-.25,1.34,68.48,68.48,0,0,1-4,18.88A72,72,0,0,1,1.3,58.46,70.73,70.73,0,0,1,20.83,21.4,70.12,70.12,0,0,1,59.6,1.11C62.31.64,65.05.36,67.78,0ZM120,113.33c21.13-23.73,22.34-64.61-6.82-89.66A63.2,63.2,0,0,0,21.14,34C-.25,62.64,8.67,97.23,24.05,113.17,28.72,96.74,39.06,85.4,54.93,79c-16.3-11.77-16.45-32.6-6-44.65a30.18,30.18,0,0,1,42.35-3.74A29,29,0,0,1,102,50.45C103.21,62.32,98.62,71.76,89.09,79,105,85.43,115.26,96.82,120,113.33ZM73.15,135.49c1.52-.13,4.23-.26,6.92-.59a61.74,61.74,0,0,0,29.27-11.65c3.69-2.7,3.64-2.78,2.53-7.3a41,41,0,0,0-80.43,3.93,1.77,1.77,0,0,0,.59,1.34C43.68,130.6,57,135.29,73.15,135.49ZM72,75.73A21.84,21.84,0,1,0,50.13,54,21.92,21.92,0,0,0,72,75.73Z"/></g></g></svg>